<svg width="24" height="24" viewBox="0 0 24 24" fill="none" xmlns="http://www.w3.org/2000/svg">
<path d="M21 6.99927V16.9993C21 19.9993 19.5 21.9993 16 21.9993H8C4.5 21.9993 3 19.9993 3 16.9993V6.99927C3 3.99927 4.5 1.99927 8 1.99927H16C19.5 1.99927 21 3.99927 21 6.99927Z" stroke="#ED3A1C" stroke-width="1.5" stroke-miterlimit="10" stroke-linecap="round" stroke-linejoin="round"/>
<path d="M15.4995 1.99927V9.85925C15.4995 10.2993 14.9795 10.5192 14.6595 10.2292L12.3395 8.08929C12.1495 7.90929 11.8495 7.90929 11.6595 8.08929L9.33954 10.2292C9.01954 10.5192 8.49951 10.2993 8.49951 9.85925V1.99927H15.4995Z" stroke="#ED3A1C" stroke-width="1.5" stroke-miterlimit="10" stroke-linecap="round" stroke-linejoin="round"/>
<path d="M13.2505 13.9993H17.5005" stroke="#ED3A1C" stroke-width="1.5" stroke-miterlimit="10" stroke-linecap="round" stroke-linejoin="round"/>
<path d="M9 18H17.5" stroke="#ED3A1C" stroke-width="1.5" stroke-miterlimit="10" stroke-linecap="round" stroke-linejoin="round"/>
</svg>
