<svg width="24" height="24" viewBox="0 0 24 24" fill="none" xmlns="http://www.w3.org/2000/svg">
<path d="M4.25977 11.0214V15.9914C4.25977 17.8114 4.25977 17.8114 5.97977 18.9714L10.7098 21.7014C11.4198 22.1114 12.5798 22.1114 13.2898 21.7014L18.0198 18.9714C19.7398 17.8114 19.7398 17.8114 19.7398 15.9914V11.0214C19.7398 9.20141 19.7398 9.20141 18.0198 8.04141L13.2898 5.31141C12.5798 4.90141 11.4198 4.90141 10.7098 5.31141L5.97977 8.04141C4.25977 9.20141 4.25977 9.20141 4.25977 11.0214Z" stroke="white" stroke-width="1.5" stroke-linecap="round" stroke-linejoin="round"/>
<path d="M17.501 7.62805V4.99805C17.501 2.99805 16.501 1.99805 14.501 1.99805H9.50098C7.50098 1.99805 6.50098 2.99805 6.50098 4.99805V7.55805" stroke="white" stroke-width="1.5" stroke-linecap="round" stroke-linejoin="round"/>
<path d="M12.6308 10.989L13.2008 11.879C13.2908 12.019 13.4908 12.159 13.6408 12.199L14.6608 12.459C15.2908 12.619 15.4608 13.159 15.0508 13.659L14.3808 14.469C14.2808 14.599 14.2008 14.829 14.2108 14.989L14.2708 16.039C14.3108 16.689 13.8508 17.019 13.2508 16.779L12.2708 16.389C12.1208 16.329 11.8708 16.329 11.7208 16.389L10.7408 16.779C10.1408 17.019 9.68076 16.679 9.72076 16.039L9.78076 14.989C9.79076 14.829 9.71076 14.589 9.61076 14.469L8.94076 13.659C8.53076 13.159 8.70076 12.619 9.33076 12.459L10.3508 12.199C10.5108 12.159 10.7108 12.009 10.7908 11.879L11.3608 10.989C11.7208 10.449 12.2808 10.449 12.6308 10.989Z" stroke="white" stroke-width="1.5" stroke-linecap="round" stroke-linejoin="round"/>
</svg>
