<svg width="24" height="24" viewBox="0 0 24 24" fill="none" xmlns="http://www.w3.org/2000/svg">
<path d="M22.001 11.9985C22.001 6.47854 17.521 1.99854 12.001 1.99854C6.48098 1.99854 2.00098 6.47854 2.00098 11.9985C2.00098 17.5185 6.48098 21.9985 12.001 21.9985" stroke="#ED3A1C" stroke-width="1.5" stroke-linecap="round" stroke-linejoin="round"/>
<path d="M8.00059 2.99927H9.00059C7.05059 8.83927 7.05059 15.1593 9.00059 20.9993H8.00059" stroke="#ED3A1C" stroke-width="1.5" stroke-linecap="round" stroke-linejoin="round"/>
<path d="M15.0005 2.99927C15.9705 5.91927 16.4605 8.95927 16.4605 11.9993" stroke="#ED3A1C" stroke-width="1.5" stroke-linecap="round" stroke-linejoin="round"/>
<path d="M3.00049 15.9993V14.9993C5.92049 15.9693 8.96049 16.4593 12.0005 16.4593" stroke="#ED3A1C" stroke-width="1.5" stroke-linecap="round" stroke-linejoin="round"/>
<path d="M3.00049 8.99937C8.84049 7.04937 15.1605 7.04937 21.0005 8.99937" stroke="#ED3A1C" stroke-width="1.5" stroke-linecap="round" stroke-linejoin="round"/>
<path d="M18.2 21.4C19.9673 21.4 21.4 19.9673 21.4 18.2C21.4 16.4327 19.9673 15 18.2 15C16.4327 15 15 16.4327 15 18.2C15 19.9673 16.4327 21.4 18.2 21.4Z" stroke="#ED3A1C" stroke-width="1.5" stroke-linecap="round" stroke-linejoin="round"/>
<path d="M22 22L21 21" stroke="#ED3A1C" stroke-width="1.5" stroke-linecap="round" stroke-linejoin="round"/>
</svg>
