<svg width="23" height="19" viewBox="0 0 23 19" fill="none" xmlns="http://www.w3.org/2000/svg">
<path d="M18.34 5.14996V10.3C18.34 13.38 16.58 14.7 13.94 14.7H5.14999C4.69999 14.7 4.27 14.66 3.87 14.57C3.62 14.53 3.38 14.46 3.16 14.38C1.66 13.82 0.75 12.52 0.75 10.3V5.14996C0.75 2.06996 2.50999 0.75 5.14999 0.75H13.94C16.18 0.75 17.79 1.7 18.22 3.87C18.29 4.27 18.34 4.67996 18.34 5.14996Z" stroke="white" stroke-width="1.5" stroke-miterlimit="10" stroke-linecap="round" stroke-linejoin="round"/>
<path d="M21.3406 8.1496V13.2996C21.3406 16.3796 19.5806 17.6996 16.9406 17.6996H8.1506C7.4106 17.6996 6.74061 17.5996 6.16061 17.3796C4.97061 16.9396 4.16061 16.0296 3.87061 14.5696C4.27061 14.6596 4.7006 14.6996 5.1506 14.6996H13.9406C16.5806 14.6996 18.3406 13.3796 18.3406 10.2996V5.1496C18.3406 4.6796 18.3006 4.25963 18.2206 3.86963C20.1206 4.26963 21.3406 5.6096 21.3406 8.1496Z" stroke="white" stroke-width="1.5" stroke-miterlimit="10" stroke-linecap="round" stroke-linejoin="round"/>
<path d="M9.53845 10.3706C10.9965 10.3706 12.1785 9.18862 12.1785 7.73059C12.1785 6.27256 10.9965 5.09058 9.53845 5.09058C8.08042 5.09058 6.89844 6.27256 6.89844 7.73059C6.89844 9.18862 8.08042 10.3706 9.53845 10.3706Z" stroke="white" stroke-width="1.5" stroke-miterlimit="10" stroke-linecap="round" stroke-linejoin="round"/>
<path d="M3.82031 5.53125V9.93127" stroke="white" stroke-width="1.5" stroke-miterlimit="10" stroke-linecap="round" stroke-linejoin="round"/>
<path d="M15.2612 5.53125V9.93127" stroke="white" stroke-width="1.5" stroke-miterlimit="10" stroke-linecap="round" stroke-linejoin="round"/>
</svg>
